<svg id="svg" version="1.1" xmlns="http://www.w3.org/2000/svg" xmlns:xlink="http://www.w3.org/1999/xlink" width="400" height="400" viewBox="0, 0, 400,400"><g id="svgg"><path id="path0" d="M304.400 51.517 C 304.400 51.897,301.519 53.252,301.260 52.993 C 301.160 52.894,301.691 52.547,302.439 52.222 C 303.436 51.789,303.580 51.627,302.976 51.616 C 301.571 51.589,300.667 52.563,300.632 54.143 C 300.597 55.712,300.617 55.699,298.114 55.782 C 296.022 55.852,295.852 56.022,295.782 58.114 C 295.699 60.617,295.712 60.597,294.143 60.632 C 292.563 60.667,291.589 61.571,291.616 62.976 C 291.627 63.580,291.789 63.436,292.222 62.439 C 292.547 61.691,292.894 61.160,292.993 61.260 C 293.252 61.519,291.897 64.400,291.517 64.400 C 291.342 64.400,291.200 68.450,291.200 73.400 L 291.200 82.400 289.000 82.400 C 287.055 82.400,286.800 82.494,286.800 83.213 C 286.800 84.656,284.243 86.799,282.513 86.806 C 281.331 86.811,281.131 86.906,281.600 87.240 C 282.054 87.563,281.870 87.610,280.843 87.432 C 279.127 87.135,278.460 87.683,278.145 89.652 C 277.912 91.108,277.815 91.200,276.493 91.200 C 275.640 91.200,274.863 91.475,274.514 91.900 C 274.169 92.322,274.058 92.361,274.234 92.000 C 274.407 91.647,274.379 91.538,274.164 91.736 C 273.964 91.921,273.782 92.371,273.759 92.736 C 273.737 93.101,273.692 93.940,273.659 94.600 C 273.601 95.770,273.549 95.800,271.538 95.800 C 269.267 95.800,269.078 96.033,269.098 98.807 L 269.109 100.215 267.254 100.150 C 264.858 100.067,264.487 100.417,264.549 102.708 L 264.600 104.600 262.440 104.600 C 260.478 104.600,260.267 104.686,260.136 105.543 C 259.939 106.834,257.782 108.760,256.255 109.009 C 252.501 109.621,251.587 110.157,251.616 111.729 C 251.628 112.433,251.740 112.351,252.196 111.300 C 252.507 110.585,252.935 110.000,253.148 110.000 C 253.361 110.000,253.864 109.899,254.267 109.775 C 254.670 109.651,254.505 109.836,253.900 110.187 C 253.295 110.538,252.539 111.450,252.220 112.213 C 251.735 113.374,251.425 113.610,250.320 113.659 C 248.007 113.763,247.810 113.794,247.290 114.130 C 247.009 114.312,246.812 114.852,246.852 115.330 C 247.042 117.602,247.852 117.449,234.052 117.743 C 220.204 118.038,220.003 118.020,219.995 116.457 C 219.985 114.706,219.559 113.655,218.861 113.662 C 218.497 113.666,217.120 113.577,215.800 113.465 C 214.480 113.353,212.935 113.247,212.367 113.231 C 211.464 113.204,211.288 112.966,210.967 111.335 C 210.543 109.178,210.478 109.149,205.800 109.028 L 202.600 108.944 202.252 107.044 C 201.820 104.689,201.351 104.479,196.700 104.553 L 193.200 104.608 193.200 102.718 C 193.200 100.495,192.393 99.815,190.236 100.220 L 188.882 100.474 188.732 95.337 C 188.554 89.200,188.116 87.979,185.896 87.429 C 184.488 87.081,184.400 86.967,184.400 85.503 C 184.400 83.597,183.775 82.336,182.875 82.425 C 180.321 82.678,179.600 82.418,179.600 81.244 C 179.600 79.694,178.503 78.514,176.800 78.233 C 175.759 78.061,175.605 78.097,176.200 78.373 C 176.777 78.641,176.827 78.752,176.380 78.772 C 176.039 78.787,175.554 78.594,175.301 78.341 C 174.173 77.213,144.467 77.531,144.686 78.670 C 144.739 78.942,144.434 79.029,143.908 78.892 C 143.075 78.674,143.072 78.653,143.821 78.334 C 144.333 78.116,144.119 78.081,143.200 78.233 C 141.349 78.539,140.265 79.816,140.521 81.391 L 140.717 82.600 138.562 82.533 C 137.376 82.496,136.287 82.659,136.141 82.895 C 135.976 83.163,136.087 83.215,136.438 83.032 C 136.747 82.872,136.674 83.007,136.275 83.333 C 135.708 83.796,135.608 84.238,135.819 85.362 C 136.004 86.347,135.942 86.800,135.621 86.800 C 135.363 86.800,135.276 86.999,135.426 87.243 C 135.616 87.550,135.325 87.603,134.476 87.417 C 133.015 87.096,131.572 88.260,131.646 89.700 C 131.688 90.515,131.711 90.524,131.888 89.800 C 132.119 88.849,133.161 87.600,133.723 87.600 C 133.943 87.600,133.764 87.915,133.325 88.300 C 132.887 88.685,132.406 89.495,132.256 90.100 C 132.107 90.705,131.808 91.200,131.592 91.200 C 131.352 91.200,131.200 93.752,131.200 97.800 L 131.200 104.400 130.100 104.459 C 129.102 104.513,128.747 104.550,127.375 104.741 C 127.141 104.773,126.905 105.650,126.852 106.690 C 126.732 109.006,126.820 108.920,124.503 108.964 C 123.456 108.984,122.371 109.148,122.090 109.330 C 121.810 109.511,121.067 109.547,120.440 109.409 C 118.865 109.063,117.910 110.070,118.075 111.904 C 118.200 113.296,118.194 113.301,116.400 113.424 C 114.003 113.589,113.745 113.659,113.666 114.167 C 113.051 118.136,113.184 118.029,108.797 118.070 C 105.463 118.102,104.800 118.559,104.800 120.829 L 104.800 122.400 103.000 122.450 C 102.010 122.478,100.975 122.522,100.700 122.550 C 100.370 122.583,100.200 123.313,100.200 124.700 L 100.200 126.800 97.800 126.844 C 96.480 126.869,95.029 126.860,94.575 126.826 C 93.221 126.722,91.599 127.522,91.606 128.290 C 91.611 128.902,91.672 128.917,92.044 128.400 C 92.403 127.901,92.435 127.923,92.238 128.533 C 92.107 128.936,92.000 129.351,92.000 129.456 C 92.000 129.561,91.820 129.536,91.600 129.400 C 91.373 129.260,91.200 129.596,91.200 130.176 L 91.200 131.200 77.800 131.200 C 70.430 131.200,64.400 131.342,64.400 131.517 C 64.400 131.897,61.519 133.252,61.260 132.993 C 61.160 132.894,61.691 132.547,62.439 132.222 C 63.436 131.789,63.580 131.627,62.976 131.616 C 61.571 131.589,60.667 132.563,60.632 134.143 C 60.597 135.712,60.617 135.699,58.114 135.782 C 56.022 135.852,55.852 136.022,55.782 138.114 C 55.699 140.617,55.712 140.597,54.143 140.632 C 52.563 140.667,51.589 141.571,51.616 142.976 C 51.627 143.580,51.789 143.436,52.222 142.439 C 52.547 141.691,52.894 141.160,52.993 141.260 C 53.252 141.519,51.897 144.400,51.517 144.400 C 51.342 144.400,51.200 151.420,51.200 160.000 C 51.200 170.328,51.338 175.600,51.608 175.600 C 51.838 175.600,51.910 176.018,51.774 176.563 C 51.390 178.090,52.205 179.114,54.102 179.490 L 55.800 179.826 55.819 181.698 C 55.842 184.000,55.911 184.070,58.356 184.305 C 60.231 184.486,60.341 184.562,60.583 185.850 C 61.104 188.625,60.928 188.600,80.000 188.600 C 99.072 188.600,98.896 188.625,99.417 185.850 C 99.659 184.562,99.769 184.486,101.644 184.305 C 104.070 184.072,104.072 184.070,104.305 181.644 C 104.486 179.769,104.562 179.659,105.850 179.417 C 108.299 178.958,108.582 178.007,108.738 169.718 L 108.876 162.400 110.405 162.400 C 112.951 162.400,113.200 162.165,113.200 159.757 L 113.200 157.600 116.800 157.600 C 120.997 157.600,122.000 157.021,122.000 154.600 L 122.000 153.200 124.157 153.200 C 126.571 153.200,126.800 152.955,126.800 150.367 L 126.800 148.800 129.900 148.794 C 133.999 148.786,134.963 148.287,135.123 146.091 L 135.246 144.400 137.380 144.400 C 139.760 144.400,140.000 144.145,140.000 141.623 L 140.000 140.111 143.598 139.906 C 147.676 139.673,148.306 139.331,148.653 137.158 L 148.899 135.619 163.350 135.510 C 181.771 135.370,180.354 135.212,180.270 137.391 C 180.179 139.726,180.274 139.780,184.795 139.936 L 188.725 140.073 189.030 141.536 C 189.197 142.341,189.295 143.164,189.246 143.363 C 189.062 144.120,190.323 144.388,194.100 144.394 L 198.000 144.400 198.061 145.700 C 198.206 148.798,198.209 148.800,202.824 148.800 L 206.800 148.800 206.847 150.100 C 206.873 150.815,206.867 151.554,206.833 151.742 C 206.686 152.561,207.810 153.200,209.397 153.200 L 211.096 153.200 211.278 158.500 C 211.379 161.466,211.669 164.189,211.934 164.682 C 212.390 165.528,214.988 166.578,215.636 166.178 C 215.807 166.072,215.873 166.728,215.783 167.637 C 215.540 170.083,216.042 170.698,218.536 171.009 C 220.509 171.256,220.661 171.349,220.495 172.214 C 220.227 173.616,222.086 175.337,223.624 175.111 C 224.271 175.016,224.800 175.097,224.800 175.290 C 224.800 175.489,231.725 175.590,240.700 175.521 C 258.575 175.385,258.709 175.365,259.360 172.740 C 259.698 171.374,259.835 171.272,261.653 171.031 C 263.830 170.742,264.400 170.080,264.400 167.842 C 264.400 166.535,264.518 166.399,265.993 166.002 C 268.501 165.326,268.584 164.966,268.731 154.100 L 268.862 144.400 271.031 144.400 C 273.081 144.400,273.200 144.345,273.200 143.394 C 273.200 141.751,275.395 140.095,278.000 139.772 C 280.979 139.403,281.484 139.068,281.790 137.257 C 282.045 135.748,282.112 135.694,284.124 135.352 L 286.195 135.000 286.541 133.100 C 286.882 131.225,286.907 131.200,288.415 131.200 C 290.375 131.200,291.200 130.363,291.200 128.371 L 291.200 126.800 292.920 126.800 C 295.077 126.800,295.600 126.281,295.600 124.141 L 295.600 122.442 297.700 122.321 C 299.599 122.212,299.813 122.104,299.933 121.200 C 300.182 119.329,302.313 117.601,304.378 117.594 C 307.076 117.585,308.114 116.907,308.512 114.894 C 308.743 113.725,309.057 113.190,309.524 113.168 C 312.543 113.022,313.259 112.634,313.152 111.200 C 313.128 110.870,313.129 110.207,313.154 109.727 L 313.200 108.853 325.119 108.727 C 338.484 108.585,338.920 108.497,339.417 105.850 C 339.659 104.562,339.769 104.486,341.644 104.305 C 344.070 104.072,344.072 104.070,344.305 101.644 C 344.486 99.769,344.562 99.659,345.850 99.417 C 348.571 98.907,348.585 98.823,348.729 82.018 C 348.904 61.750,348.765 60.698,345.898 60.632 C 344.487 60.600,344.484 60.597,344.309 58.500 C 344.094 55.920,344.019 55.843,341.698 55.819 L 339.826 55.800 339.490 54.102 C 339.114 52.205,338.090 51.390,336.563 51.774 C 336.018 51.910,335.600 51.838,335.600 51.608 C 335.600 51.338,330.328 51.200,320.000 51.200 C 311.420 51.200,304.400 51.342,304.400 51.517 M336.438 55.100 C 336.733 55.485,336.816 55.667,336.624 55.503 C 336.431 55.340,335.987 55.430,335.637 55.703 C 335.061 56.152,335.058 56.125,335.600 55.425 C 336.148 54.718,336.137 54.674,335.479 54.921 C 335.046 55.083,334.856 55.033,335.003 54.795 C 335.363 54.212,335.835 54.312,336.438 55.100 M185.890 90.987 C 186.060 91.175,185.990 91.208,185.734 91.062 C 185.478 90.915,185.208 90.958,185.134 91.158 C 185.060 91.358,184.768 91.269,184.484 90.961 C 184.055 90.494,184.103 90.421,184.774 90.523 C 185.217 90.591,185.719 90.800,185.890 90.987 M278.225 136.372 C 277.880 136.753,277.734 137.214,277.899 137.397 C 278.065 137.579,277.972 137.597,277.693 137.436 C 277.415 137.276,277.322 136.932,277.487 136.672 C 277.653 136.413,277.813 136.065,277.844 135.900 C 277.875 135.735,277.923 135.499,277.950 135.376 C 277.978 135.253,278.192 135.271,278.426 135.416 C 278.709 135.591,278.641 135.913,278.225 136.372 M298.200 157.868 C 297.320 157.956,296.330 158.138,296.000 158.271 C 295.670 158.405,294.950 158.481,294.400 158.439 C 292.820 158.318,291.927 159.264,291.571 161.434 C 290.871 165.692,291.135 348.400,291.840 348.671 C 292.193 348.806,292.640 348.665,292.834 348.358 C 293.083 347.965,293.190 347.946,293.194 348.296 C 293.199 348.688,299.065 348.772,320.900 348.696 L 348.600 348.600 348.719 256.800 C 348.856 151.064,349.074 158.101,345.672 158.458 C 345.082 158.520,344.330 158.397,344.000 158.185 C 343.419 157.812,301.648 157.522,298.200 157.868 M54.913 175.500 C 54.674 176.136,54.721 176.145,55.425 175.600 C 56.125 175.058,56.152 175.061,55.703 175.637 C 55.430 175.987,55.293 176.394,55.399 176.542 C 55.504 176.689,55.301 176.555,54.948 176.243 C 54.594 175.932,54.427 175.479,54.576 175.238 C 54.996 174.559,55.204 174.721,54.913 175.500 M134.493 184.884 C 131.088 185.614,131.413 177.166,131.293 267.892 C 131.196 341.760,131.240 348.441,131.834 348.668 C 132.193 348.806,132.638 348.668,132.834 348.358 C 133.083 347.965,133.190 347.946,133.194 348.296 C 133.199 348.688,139.065 348.772,160.900 348.696 L 188.600 348.600 188.600 267.982 C 188.600 177.134,188.916 185.618,185.507 184.880 C 183.291 184.400,136.730 184.403,134.493 184.884 M214.456 211.592 C 212.704 212.015,212.022 212.740,211.580 214.644 C 210.854 217.776,211.107 348.389,211.840 348.671 C 212.193 348.806,212.640 348.665,212.834 348.358 C 213.083 347.965,213.190 347.946,213.194 348.296 C 213.199 348.688,219.065 348.772,240.900 348.696 L 268.600 348.600 268.600 281.800 C 268.600 211.961,268.631 213.232,266.912 212.105 C 265.738 211.336,217.471 210.864,214.456 211.592 M58.200 237.868 C 57.320 237.956,56.330 238.138,56.000 238.271 C 55.670 238.405,54.950 238.481,54.400 238.439 C 52.820 238.318,51.927 239.264,51.571 241.434 C 50.875 245.668,51.134 348.400,51.840 348.671 C 52.193 348.806,52.640 348.665,52.834 348.358 C 53.083 347.965,53.190 347.946,53.194 348.296 C 53.199 348.688,59.065 348.772,80.900 348.696 L 108.600 348.600 108.720 296.800 C 108.862 235.650,108.990 238.110,105.672 238.458 C 105.082 238.520,104.330 238.397,104.000 238.185 C 103.419 237.812,61.648 237.522,58.200 237.868 " stroke="none" fill="#848484" fill-rule="evenodd"></path><path id="path1" d="M302.439 52.222 C 301.691 52.547,301.165 52.899,301.271 53.005 C 301.377 53.110,302.169 52.845,303.032 52.414 C 304.863 51.501,304.427 51.359,302.439 52.222 M335.003 54.795 C 334.856 55.033,335.046 55.083,335.479 54.921 C 336.137 54.674,336.148 54.718,335.600 55.425 C 335.058 56.125,335.061 56.152,335.637 55.703 C 335.987 55.430,336.431 55.340,336.624 55.503 C 336.816 55.667,336.733 55.485,336.438 55.100 C 335.835 54.312,335.363 54.212,335.003 54.795 M292.205 62.526 C 291.349 64.575,291.483 64.899,292.414 63.032 C 292.845 62.169,293.110 61.377,293.004 61.270 C 292.897 61.164,292.538 61.729,292.205 62.526 M132.716 88.300 C 132.381 88.685,131.988 89.540,131.842 90.200 C 131.647 91.077,131.685 91.239,131.982 90.800 C 132.205 90.470,132.391 89.951,132.394 89.647 C 132.397 89.343,132.788 88.758,133.261 88.347 C 133.735 87.936,133.943 87.600,133.723 87.600 C 133.504 87.600,133.050 87.915,132.716 88.300 M184.484 90.961 C 184.768 91.269,185.060 91.358,185.134 91.158 C 185.208 90.958,185.478 90.915,185.734 91.062 C 185.990 91.208,186.060 91.175,185.890 90.987 C 185.719 90.800,185.217 90.591,184.774 90.523 C 184.103 90.421,184.055 90.494,184.484 90.961 M253.377 109.984 C 252.924 110.167,252.254 111.101,251.887 112.059 C 251.361 113.431,251.344 113.636,251.810 113.024 C 252.134 112.596,252.400 112.009,252.400 111.718 C 252.400 111.426,252.985 110.832,253.700 110.396 C 255.024 109.588,254.863 109.382,253.377 109.984 M62.439 132.222 C 61.691 132.547,61.165 132.899,61.271 133.005 C 61.377 133.110,62.169 132.845,63.032 132.414 C 64.863 131.501,64.427 131.359,62.439 132.222 M277.950 135.376 C 277.923 135.499,277.875 135.735,277.844 135.900 C 277.813 136.065,277.653 136.413,277.487 136.672 C 277.322 136.932,277.415 137.276,277.693 137.436 C 277.972 137.597,278.065 137.579,277.899 137.397 C 277.734 137.214,277.880 136.753,278.225 136.372 C 278.641 135.913,278.709 135.591,278.426 135.416 C 278.192 135.271,277.978 135.253,277.950 135.376 M52.205 142.526 C 51.349 144.575,51.483 144.899,52.414 143.032 C 52.845 142.169,53.110 141.377,53.004 141.270 C 52.897 141.164,52.538 141.729,52.205 142.526 M54.576 175.238 C 54.427 175.479,54.594 175.932,54.948 176.243 C 55.301 176.555,55.504 176.689,55.399 176.542 C 55.293 176.394,55.430 175.987,55.703 175.637 C 56.152 175.061,56.125 175.058,55.425 175.600 C 54.721 176.145,54.674 176.136,54.913 175.500 C 55.204 174.721,54.996 174.559,54.576 175.238 " stroke="none" fill="#888484" fill-rule="evenodd"></path><path id="path2" d="M302.439 52.222 C 301.691 52.547,301.165 52.899,301.271 53.005 C 301.377 53.110,302.169 52.845,303.032 52.414 C 304.863 51.501,304.427 51.359,302.439 52.222 M335.003 54.795 C 334.856 55.033,335.046 55.083,335.479 54.921 C 336.137 54.674,336.148 54.718,335.600 55.425 C 335.058 56.125,335.061 56.152,335.637 55.703 C 335.987 55.430,336.431 55.340,336.624 55.503 C 336.816 55.667,336.733 55.485,336.438 55.100 C 335.835 54.312,335.363 54.212,335.003 54.795 M292.205 62.526 C 291.349 64.575,291.483 64.899,292.414 63.032 C 292.845 62.169,293.110 61.377,293.004 61.270 C 292.897 61.164,292.538 61.729,292.205 62.526 M132.716 88.300 C 132.381 88.685,131.988 89.540,131.842 90.200 C 131.647 91.077,131.685 91.239,131.982 90.800 C 132.205 90.470,132.391 89.951,132.394 89.647 C 132.397 89.343,132.788 88.758,133.261 88.347 C 133.735 87.936,133.943 87.600,133.723 87.600 C 133.504 87.600,133.050 87.915,132.716 88.300 M184.484 90.961 C 184.768 91.269,185.060 91.358,185.134 91.158 C 185.208 90.958,185.478 90.915,185.734 91.062 C 185.990 91.208,186.060 91.175,185.890 90.987 C 185.719 90.800,185.217 90.591,184.774 90.523 C 184.103 90.421,184.055 90.494,184.484 90.961 M253.377 109.984 C 252.924 110.167,252.254 111.101,251.887 112.059 C 251.361 113.431,251.344 113.636,251.810 113.024 C 252.134 112.596,252.400 112.009,252.400 111.718 C 252.400 111.426,252.985 110.832,253.700 110.396 C 255.024 109.588,254.863 109.382,253.377 109.984 M62.439 132.222 C 61.691 132.547,61.165 132.899,61.271 133.005 C 61.377 133.110,62.169 132.845,63.032 132.414 C 64.863 131.501,64.427 131.359,62.439 132.222 M277.950 135.376 C 277.923 135.499,277.875 135.735,277.844 135.900 C 277.813 136.065,277.653 136.413,277.487 136.672 C 277.322 136.932,277.415 137.276,277.693 137.436 C 277.972 137.597,278.065 137.579,277.899 137.397 C 277.734 137.214,277.880 136.753,278.225 136.372 C 278.641 135.913,278.709 135.591,278.426 135.416 C 278.192 135.271,277.978 135.253,277.950 135.376 M52.205 142.526 C 51.349 144.575,51.483 144.899,52.414 143.032 C 52.845 142.169,53.110 141.377,53.004 141.270 C 52.897 141.164,52.538 141.729,52.205 142.526 M54.576 175.238 C 54.427 175.479,54.594 175.932,54.948 176.243 C 55.301 176.555,55.504 176.689,55.399 176.542 C 55.293 176.394,55.430 175.987,55.703 175.637 C 56.152 175.061,56.125 175.058,55.425 175.600 C 54.721 176.145,54.674 176.136,54.913 175.500 C 55.204 174.721,54.996 174.559,54.576 175.238 " stroke="none" fill="#888484" fill-rule="evenodd"></path><path id="path3" d="M302.439 52.222 C 301.691 52.547,301.165 52.899,301.271 53.005 C 301.377 53.110,302.169 52.845,303.032 52.414 C 304.863 51.501,304.427 51.359,302.439 52.222 M335.003 54.795 C 334.856 55.033,335.046 55.083,335.479 54.921 C 336.137 54.674,336.148 54.718,335.600 55.425 C 335.058 56.125,335.061 56.152,335.637 55.703 C 335.987 55.430,336.431 55.340,336.624 55.503 C 336.816 55.667,336.733 55.485,336.438 55.100 C 335.835 54.312,335.363 54.212,335.003 54.795 M292.205 62.526 C 291.349 64.575,291.483 64.899,292.414 63.032 C 292.845 62.169,293.110 61.377,293.004 61.270 C 292.897 61.164,292.538 61.729,292.205 62.526 M132.716 88.300 C 132.381 88.685,131.988 89.540,131.842 90.200 C 131.647 91.077,131.685 91.239,131.982 90.800 C 132.205 90.470,132.391 89.951,132.394 89.647 C 132.397 89.343,132.788 88.758,133.261 88.347 C 133.735 87.936,133.943 87.600,133.723 87.600 C 133.504 87.600,133.050 87.915,132.716 88.300 M184.484 90.961 C 184.768 91.269,185.060 91.358,185.134 91.158 C 185.208 90.958,185.478 90.915,185.734 91.062 C 185.990 91.208,186.060 91.175,185.890 90.987 C 185.719 90.800,185.217 90.591,184.774 90.523 C 184.103 90.421,184.055 90.494,184.484 90.961 M253.377 109.984 C 252.924 110.167,252.254 111.101,251.887 112.059 C 251.361 113.431,251.344 113.636,251.810 113.024 C 252.134 112.596,252.400 112.009,252.400 111.718 C 252.400 111.426,252.985 110.832,253.700 110.396 C 255.024 109.588,254.863 109.382,253.377 109.984 M62.439 132.222 C 61.691 132.547,61.165 132.899,61.271 133.005 C 61.377 133.110,62.169 132.845,63.032 132.414 C 64.863 131.501,64.427 131.359,62.439 132.222 M277.950 135.376 C 277.923 135.499,277.875 135.735,277.844 135.900 C 277.813 136.065,277.653 136.413,277.487 136.672 C 277.322 136.932,277.415 137.276,277.693 137.436 C 277.972 137.597,278.065 137.579,277.899 137.397 C 277.734 137.214,277.880 136.753,278.225 136.372 C 278.641 135.913,278.709 135.591,278.426 135.416 C 278.192 135.271,277.978 135.253,277.950 135.376 M52.205 142.526 C 51.349 144.575,51.483 144.899,52.414 143.032 C 52.845 142.169,53.110 141.377,53.004 141.270 C 52.897 141.164,52.538 141.729,52.205 142.526 M54.576 175.238 C 54.427 175.479,54.594 175.932,54.948 176.243 C 55.301 176.555,55.504 176.689,55.399 176.542 C 55.293 176.394,55.430 175.987,55.703 175.637 C 56.152 175.061,56.125 175.058,55.425 175.600 C 54.721 176.145,54.674 176.136,54.913 175.500 C 55.204 174.721,54.996 174.559,54.576 175.238 " stroke="none" fill="#888484" fill-rule="evenodd"></path><path id="path4" d="M302.439 52.222 C 301.691 52.547,301.165 52.899,301.271 53.005 C 301.377 53.110,302.169 52.845,303.032 52.414 C 304.863 51.501,304.427 51.359,302.439 52.222 M335.003 54.795 C 334.856 55.033,335.046 55.083,335.479 54.921 C 336.137 54.674,336.148 54.718,335.600 55.425 C 335.058 56.125,335.061 56.152,335.637 55.703 C 335.987 55.430,336.431 55.340,336.624 55.503 C 336.816 55.667,336.733 55.485,336.438 55.100 C 335.835 54.312,335.363 54.212,335.003 54.795 M292.205 62.526 C 291.349 64.575,291.483 64.899,292.414 63.032 C 292.845 62.169,293.110 61.377,293.004 61.270 C 292.897 61.164,292.538 61.729,292.205 62.526 M132.716 88.300 C 132.381 88.685,131.988 89.540,131.842 90.200 C 131.647 91.077,131.685 91.239,131.982 90.800 C 132.205 90.470,132.391 89.951,132.394 89.647 C 132.397 89.343,132.788 88.758,133.261 88.347 C 133.735 87.936,133.943 87.600,133.723 87.600 C 133.504 87.600,133.050 87.915,132.716 88.300 M184.484 90.961 C 184.768 91.269,185.060 91.358,185.134 91.158 C 185.208 90.958,185.478 90.915,185.734 91.062 C 185.990 91.208,186.060 91.175,185.890 90.987 C 185.719 90.800,185.217 90.591,184.774 90.523 C 184.103 90.421,184.055 90.494,184.484 90.961 M253.377 109.984 C 252.924 110.167,252.254 111.101,251.887 112.059 C 251.361 113.431,251.344 113.636,251.810 113.024 C 252.134 112.596,252.400 112.009,252.400 111.718 C 252.400 111.426,252.985 110.832,253.700 110.396 C 255.024 109.588,254.863 109.382,253.377 109.984 M62.439 132.222 C 61.691 132.547,61.165 132.899,61.271 133.005 C 61.377 133.110,62.169 132.845,63.032 132.414 C 64.863 131.501,64.427 131.359,62.439 132.222 M277.950 135.376 C 277.923 135.499,277.875 135.735,277.844 135.900 C 277.813 136.065,277.653 136.413,277.487 136.672 C 277.322 136.932,277.415 137.276,277.693 137.436 C 277.972 137.597,278.065 137.579,277.899 137.397 C 277.734 137.214,277.880 136.753,278.225 136.372 C 278.641 135.913,278.709 135.591,278.426 135.416 C 278.192 135.271,277.978 135.253,277.950 135.376 M52.205 142.526 C 51.349 144.575,51.483 144.899,52.414 143.032 C 52.845 142.169,53.110 141.377,53.004 141.270 C 52.897 141.164,52.538 141.729,52.205 142.526 M54.576 175.238 C 54.427 175.479,54.594 175.932,54.948 176.243 C 55.301 176.555,55.504 176.689,55.399 176.542 C 55.293 176.394,55.430 175.987,55.703 175.637 C 56.152 175.061,56.125 175.058,55.425 175.600 C 54.721 176.145,54.674 176.136,54.913 175.500 C 55.204 174.721,54.996 174.559,54.576 175.238 " stroke="none" fill="#888484" fill-rule="evenodd"></path></g></svg>